<?xml version="1.0" standalone="no"?>
<!DOCTYPE svg PUBLIC "-//W3C//DTD SVG 20010904//EN"
 "http://www.w3.org/TR/2001/REC-SVG-20010904/DTD/svg10.dtd">
<svg version="1.0" xmlns="http://www.w3.org/2000/svg"
 width="512.000000pt" height="512.000000pt" viewBox="0 0 512.000000 512.000000"
 preserveAspectRatio="xMidYMid meet">

<g transform="translate(0.000000,512.000000) scale(0.100000,-0.100000)"
fill="#00cc2d" stroke="none">
<path d="M415 3986 c-67 -29 -105 -106 -91 -181 9 -47 59 -102 104 -115 25 -8
401 -10 1194 -8 1150 3 1157 3 1184 24 53 39 69 71 69 134 0 63 -16 95 -69
134 -27 21 -33 21 -1194 23 -955 2 -1173 0 -1197 -11z"/>
<path d="M4573 3191 c-17 -11 -332 -387 -699 -835 -367 -449 -670 -816 -674
-816 -4 0 -159 182 -344 405 -185 222 -349 413 -363 424 -112 89 -285 -32
-244 -170 17 -56 835 -1039 885 -1063 44 -21 89 -20 133 1 26 12 219 241 773
918 406 496 745 916 755 935 66 128 -98 276 -222 201z"/>
<path d="M415 3186 c-67 -29 -105 -106 -91 -181 9 -47 59 -102 104 -115 25 -8
401 -10 1194 -8 1150 3 1157 3 1184 24 53 39 69 71 69 134 0 63 -16 95 -69
134 -27 21 -33 21 -1194 23 -955 2 -1173 0 -1197 -11z"/>
<path d="M415 2386 c-67 -29 -105 -106 -91 -181 9 -47 59 -102 104 -115 25 -8
233 -10 634 -8 585 3 597 3 624 24 53 39 69 71 69 134 0 63 -16 95 -69 134
-27 21 -39 21 -634 23 -489 2 -613 0 -637 -11z"/>
</g>
</svg>
