<svg width="48" height="48" viewBox="0 0 48 48" fill="none" xmlns="http://www.w3.org/2000/svg">
<rect width="48" height="48" rx="12" fill="#272727" fill-opacity="0.1"/>
<path fill-rule="evenodd" clip-rule="evenodd" d="M15.6723 18.8837C14.993 20.0333 14.7694 21.5402 14.9854 22.8356C15.41 25.3834 17.6197 27.6795 19.9641 29.4158C21.1074 30.2625 22.2252 30.9342 23.0586 31.3944C23.4433 31.6068 23.7654 31.7731 23.999 31.8898C24.2326 31.7731 24.5547 31.6068 24.9394 31.3944C25.7728 30.9342 26.8906 30.2625 28.034 29.4158C30.3784 27.6795 32.588 25.3835 33.0127 22.8356C33.2286 21.5403 33.005 20.0334 32.3256 18.8837C31.6716 17.7769 30.6052 17 28.9991 17C27.3919 17 26.4126 17.782 25.799 18.6C25.4861 19.0172 25.2741 19.4397 25.1408 19.7596C25.0747 19.9183 25.0295 20.048 25.0018 20.1341C24.988 20.1771 24.9786 20.2089 24.9733 20.2277L24.9683 20.2457L24.9687 20.2442C24.9685 20.2452 24.9686 20.2447 24.9683 20.2457C24.9682 20.2461 24.9684 20.2455 24.9683 20.2457C24.8556 20.6887 24.4565 21 23.999 21C23.5415 21 23.1425 20.6896 23.0299 20.2465C23.0298 20.2463 23.0299 20.2468 23.0299 20.2465L23.0247 20.2277C23.0193 20.2089 23.01 20.1771 22.9962 20.1341C22.9685 20.048 22.9233 19.9182 22.8572 19.7596C22.7239 19.4397 22.5119 19.0172 22.199 18.6C21.5855 17.782 20.6062 17 18.9989 17C17.3927 17 16.3263 17.7769 15.6723 18.8837ZM23.999 20C23.0288 20.2425 23.029 20.2429 23.0291 20.2434L23.0296 20.2454L23.0299 20.2465M23.999 17.681C23.9361 17.5878 23.8695 17.494 23.799 17.4C22.9125 16.218 21.3918 15 18.9989 15C16.605 15 14.9214 16.2231 13.9504 17.8663C13.0048 19.4667 12.7284 21.4598 13.0126 23.1644C13.5744 26.5349 16.3648 29.2389 18.7738 31.023C20.0071 31.9364 21.2044 32.6551 22.0918 33.1452C22.5364 33.3907 22.9056 33.5801 23.1655 33.709C23.2955 33.7734 23.3984 33.8229 23.4699 33.8567C23.5057 33.8736 23.5337 33.8866 23.5532 33.8957L23.5763 33.9063L23.583 33.9094L23.5852 33.9104C23.5855 33.9105 23.5865 33.9109 23.999 33L23.5865 33.9109C23.8487 34.0297 24.1493 34.0297 24.4115 33.911L23.999 33C24.4115 33.911 24.4112 33.9111 24.4115 33.911L24.4149 33.9094L24.4217 33.9063L24.4447 33.8957C24.4643 33.8866 24.4923 33.8736 24.528 33.8567C24.5996 33.8229 24.7024 33.7734 24.8325 33.709C25.0924 33.5801 25.4616 33.3907 25.9062 33.1452C26.7936 32.6551 27.9909 31.9364 29.2243 31.023C31.6333 29.2389 34.4237 26.5349 34.9855 23.1644C35.2696 21.4597 34.9932 19.4667 34.0475 17.8663C33.0765 16.2231 31.3929 15 28.9991 15C26.6062 15 25.0855 16.218 24.199 17.4C24.1285 17.494 24.0619 17.5878 23.999 17.681Z" fill="#FF6633"/>
</svg>
