<svg width="76" height="48" viewBox="0 0 76 48" fill="none" xmlns="http://www.w3.org/2000/svg">
<rect width="76" height="48" rx="12" fill="#CCF5D5"/>
<path fill-rule="evenodd" clip-rule="evenodd" d="M37.9987 14.667C38.643 14.667 39.1654 15.1893 39.1654 15.8337V32.167C39.1654 32.8113 38.643 33.3337 37.9987 33.3337C37.3544 33.3337 36.832 32.8113 36.832 32.167V15.8337C36.832 15.1893 37.3544 14.667 37.9987 14.667Z" fill="#00CC2D"/>
<path fill-rule="evenodd" clip-rule="evenodd" d="M28.668 23.9997C28.668 23.3553 29.1903 22.833 29.8346 22.833H46.168C46.8123 22.833 47.3346 23.3553 47.3346 23.9997C47.3346 24.644 46.8123 25.1663 46.168 25.1663H29.8346C29.1903 25.1663 28.668 24.644 28.668 23.9997Z" fill="#00CC2D"/>
</svg>
