<?xml version="1.0" standalone="no"?>
<!DOCTYPE svg PUBLIC "-//W3C//DTD SVG 20010904//EN"
 "http://www.w3.org/TR/2001/REC-SVG-20010904/DTD/svg10.dtd">
<svg version="1.0" xmlns="http://www.w3.org/2000/svg"
 width="80.000000pt" height="80.000000pt" viewBox="0 0 80.000000 80.000000"
 preserveAspectRatio="xMidYMid meet" fill="#ffff">
 <rect width="80.000000pt" height="80.000000pt" rx="12" fill="#272727" fill-opacity="0.1"/>
<g transform="translate(0.000000,80.000000) scale(0.100000,-0.100000)" stroke="none">
<path d="M174 693 c-3 -10 -10 -27 -15 -38 -4 -11 -10 -143 -11 -293 l-3 -272
255 0 255 0 -3 272 c-1 150 -7 282 -11 293 -5 11 -12 28 -15 38 -5 15 -25 17
-226 17 -201 0 -221 -2 -226 -17z m436 -18 c0 -13 -30 -15 -210 -15 -180 0
-210 2 -210 15 0 13 30 15 210 15 180 0 210 -2 210 -15z m20 -284 c0 -137 3
-256 6 -265 6 -14 -19 -16 -236 -16 -217 0 -242 2 -236 16 3 9 6 128 6 265 l0
249 230 0 230 0 0 -249z"/>
<path d="M288 585 c-9 -9 3 -87 19 -117 15 -30 60 -58 93 -58 33 0 78 28 94
58 21 41 25 117 6 117 -12 0 -14 -10 -12 -47 3 -42 0 -51 -26 -78 -21 -21 -40
-30 -62 -30 -22 0 -41 9 -62 30 -26 26 -29 36 -26 77 3 42 -8 64 -24 48z"/>
<path d="M190 160 c0 -5 5 -10 10 -10 6 0 10 5 10 10 0 6 -4 10 -10 10 -5 0
-10 -4 -10 -10z"/>
<path d="M230 160 c0 -5 5 -10 10 -10 6 0 10 5 10 10 0 6 -4 10 -10 10 -5 0
-10 -4 -10 -10z"/>
<path d="M270 160 c0 -5 5 -10 10 -10 6 0 10 5 10 10 0 6 -4 10 -10 10 -5 0
-10 -4 -10 -10z"/>
<path d="M310 160 c0 -5 5 -10 10 -10 6 0 10 5 10 10 0 6 -4 10 -10 10 -5 0
-10 -4 -10 -10z"/>
<path d="M350 160 c0 -5 5 -10 10 -10 6 0 10 5 10 10 0 6 -4 10 -10 10 -5 0
-10 -4 -10 -10z"/>
<path d="M390 160 c0 -5 5 -10 10 -10 6 0 10 5 10 10 0 6 -4 10 -10 10 -5 0
-10 -4 -10 -10z"/>
<path d="M430 160 c0 -5 5 -10 10 -10 6 0 10 5 10 10 0 6 -4 10 -10 10 -5 0
-10 -4 -10 -10z"/>
<path d="M470 160 c0 -5 5 -10 10 -10 6 0 10 5 10 10 0 6 -4 10 -10 10 -5 0
-10 -4 -10 -10z"/>
<path d="M510 160 c0 -5 5 -10 10 -10 6 0 10 5 10 10 0 6 -4 10 -10 10 -5 0
-10 -4 -10 -10z"/>
<path d="M550 160 c0 -5 5 -10 10 -10 6 0 10 5 10 10 0 6 -4 10 -10 10 -5 0
-10 -4 -10 -10z"/>
<path d="M590 160 c0 -5 5 -10 10 -10 6 0 10 5 10 10 0 6 -4 10 -10 10 -5 0
-10 -4 -10 -10z"/>
</g>
</svg>
