<?xml version="1.0" standalone="no"?>
<!DOCTYPE svg PUBLIC "-//W3C//DTD SVG 20010904//EN"
 "http://www.w3.org/TR/2001/REC-SVG-20010904/DTD/svg10.dtd">
<svg version="1.0" xmlns="http://www.w3.org/2000/svg"
 width="64.000000pt" height="64.000000pt" viewBox="0 0 64.000000 64.000000"
 preserveAspectRatio="xMidYMid meet">

<g transform="translate(0.000000,64.000000) scale(0.100000,-0.100000)"
fill="#ff6633" stroke="none">
<path d="M252 548 c-7 -7 -12 -20 -12 -30 0 -15 -9 -18 -60 -18 -53 0 -60 -2
-60 -20 0 -11 5 -20 10 -20 6 0 10 -63 10 -170 0 -217 -5 -210 148 -210 96 0
111 2 127 20 17 19 16 19 -106 22 l-124 3 -3 168 -2 167 140 0 140 0 0 -98 c0
-86 3 -101 20 -117 20 -18 20 -17 20 98 0 71 4 117 10 117 6 0 10 9 10 20 0
18 -7 20 -60 20 -51 0 -60 3 -60 18 0 31 -22 42 -80 42 -31 0 -61 -5 -68 -12z
m108 -38 c0 -5 -18 -10 -40 -10 -22 0 -40 5 -40 10 0 6 18 10 40 10 22 0 40
-4 40 -10z"/>
<path d="M220 290 c0 -103 1 -110 20 -110 19 0 20 7 20 110 0 103 -1 110 -20
110 -19 0 -20 -7 -20 -110z"/>
<path d="M300 290 c0 -103 1 -110 20 -110 19 0 20 7 20 110 0 103 -1 110 -20
110 -19 0 -20 -7 -20 -110z"/>
<path d="M380 328 c0 -70 0 -71 20 -53 15 14 20 31 20 72 0 46 -2 53 -20 53
-18 0 -20 -7 -20 -72z"/>
<path d="M412 228 c-10 -10 -2 -23 35 -60 l47 -48 -47 -48 c-37 -38 -45 -50
-35 -60 10 -10 22 -2 60 35 l48 47 43 -42 c30 -29 49 -41 60 -36 25 9 22 15
-28 64 l-45 44 45 46 c35 36 43 48 33 58 -10 10 -22 2 -58 -33 l-46 -45 -44
45 c-49 49 -51 50 -68 33z"/>
</g>
</svg>
